<mxfile host="app.diagrams.net" agent="Mozilla/5.0 (Windows NT 10.0; Win64; x64) AppleWebKit/537.36 (KHTML, like Gecko) Chrome/130.0.0.0 Safari/537.36" version="24.8.3">
  <diagram name="Página-1" id="9SBS26PUuepdbKGIWxoW">
    <mxGraphModel dx="2448" dy="452" grid="1" gridSize="10" guides="1" tooltips="1" connect="1" arrows="1" fold="1" page="1" pageScale="1" pageWidth="827" pageHeight="1169" math="0" shadow="0">
      <root>
        <mxCell id="0" />
        <mxCell id="1" parent="0" />
        <mxCell id="ndMn5hKnKv3FtZIx1UVw-1" value="Usuario" style="shape=table;startSize=40;container=1;collapsible=1;childLayout=tableLayout;fixedRows=1;rowLines=0;fontStyle=1;align=center;resizeLast=1;fontSize=14;" parent="1" vertex="1">
          <mxGeometry x="40" y="120" width="400" height="220" as="geometry" />
        </mxCell>
        <mxCell id="ndMn5hKnKv3FtZIx1UVw-2" value="" style="shape=tableRow;horizontal=0;startSize=0;swimlaneHead=0;swimlaneBody=0;fillColor=none;collapsible=0;dropTarget=0;points=[[0,0.5],[1,0.5]];portConstraint=eastwest;strokeColor=inherit;top=0;left=0;right=0;bottom=1;fontSize=12;" parent="ndMn5hKnKv3FtZIx1UVw-1" vertex="1">
          <mxGeometry y="40" width="400" height="30" as="geometry" />
        </mxCell>
        <mxCell id="ndMn5hKnKv3FtZIx1UVw-3" value="PK" style="shape=partialRectangle;overflow=hidden;connectable=0;fillColor=none;strokeColor=inherit;top=0;left=0;bottom=0;right=0;fontStyle=1;fontSize=12;" parent="ndMn5hKnKv3FtZIx1UVw-2" vertex="1">
          <mxGeometry width="30" height="30" as="geometry">
            <mxRectangle width="30" height="30" as="alternateBounds" />
          </mxGeometry>
        </mxCell>
        <mxCell id="ndMn5hKnKv3FtZIx1UVw-4" value="id INT AUTO_INCREMENT " style="shape=partialRectangle;overflow=hidden;connectable=0;fillColor=none;align=left;strokeColor=inherit;top=0;left=0;bottom=0;right=0;spacingLeft=6;fontStyle=1;fontSize=12;" parent="ndMn5hKnKv3FtZIx1UVw-2" vertex="1">
          <mxGeometry x="30" width="370" height="30" as="geometry">
            <mxRectangle width="370" height="30" as="alternateBounds" />
          </mxGeometry>
        </mxCell>
        <mxCell id="ndMn5hKnKv3FtZIx1UVw-5" value="" style="shape=tableRow;horizontal=0;startSize=0;swimlaneHead=0;swimlaneBody=0;fillColor=none;collapsible=0;dropTarget=0;points=[[0,0.5],[1,0.5]];portConstraint=eastwest;strokeColor=inherit;top=0;left=0;right=0;bottom=0;fontSize=12;" parent="ndMn5hKnKv3FtZIx1UVw-1" vertex="1">
          <mxGeometry y="70" width="400" height="30" as="geometry" />
        </mxCell>
        <mxCell id="ndMn5hKnKv3FtZIx1UVw-6" value="" style="shape=partialRectangle;overflow=hidden;connectable=0;fillColor=none;strokeColor=inherit;top=0;left=0;bottom=0;right=0;fontSize=12;" parent="ndMn5hKnKv3FtZIx1UVw-5" vertex="1">
          <mxGeometry width="30" height="30" as="geometry">
            <mxRectangle width="30" height="30" as="alternateBounds" />
          </mxGeometry>
        </mxCell>
        <mxCell id="ndMn5hKnKv3FtZIx1UVw-7" value="nombre_usuario VARCHAR(50) UNIQUE NOT NULL" style="shape=partialRectangle;overflow=hidden;connectable=0;fillColor=none;align=left;strokeColor=inherit;top=0;left=0;bottom=0;right=0;spacingLeft=6;fontSize=12;" parent="ndMn5hKnKv3FtZIx1UVw-5" vertex="1">
          <mxGeometry x="30" width="370" height="30" as="geometry">
            <mxRectangle width="370" height="30" as="alternateBounds" />
          </mxGeometry>
        </mxCell>
        <mxCell id="ndMn5hKnKv3FtZIx1UVw-8" value="" style="shape=tableRow;horizontal=0;startSize=0;swimlaneHead=0;swimlaneBody=0;fillColor=none;collapsible=0;dropTarget=0;points=[[0,0.5],[1,0.5]];portConstraint=eastwest;strokeColor=inherit;top=0;left=0;right=0;bottom=0;fontSize=12;" parent="ndMn5hKnKv3FtZIx1UVw-1" vertex="1">
          <mxGeometry y="100" width="400" height="30" as="geometry" />
        </mxCell>
        <mxCell id="ndMn5hKnKv3FtZIx1UVw-9" value="" style="shape=partialRectangle;overflow=hidden;connectable=0;fillColor=none;strokeColor=inherit;top=0;left=0;bottom=0;right=0;fontSize=12;" parent="ndMn5hKnKv3FtZIx1UVw-8" vertex="1">
          <mxGeometry width="30" height="30" as="geometry">
            <mxRectangle width="30" height="30" as="alternateBounds" />
          </mxGeometry>
        </mxCell>
        <mxCell id="ndMn5hKnKv3FtZIx1UVw-10" value="contrasena VARCHAR(25) NOT NULL" style="shape=partialRectangle;overflow=hidden;connectable=0;fillColor=none;align=left;strokeColor=inherit;top=0;left=0;bottom=0;right=0;spacingLeft=6;fontSize=12;" parent="ndMn5hKnKv3FtZIx1UVw-8" vertex="1">
          <mxGeometry x="30" width="370" height="30" as="geometry">
            <mxRectangle width="370" height="30" as="alternateBounds" />
          </mxGeometry>
        </mxCell>
        <mxCell id="ndMn5hKnKv3FtZIx1UVw-11" value="" style="shape=tableRow;horizontal=0;startSize=0;swimlaneHead=0;swimlaneBody=0;fillColor=none;collapsible=0;dropTarget=0;points=[[0,0.5],[1,0.5]];portConstraint=eastwest;strokeColor=inherit;top=0;left=0;right=0;bottom=0;fontSize=12;" parent="ndMn5hKnKv3FtZIx1UVw-1" vertex="1">
          <mxGeometry y="130" width="400" height="30" as="geometry" />
        </mxCell>
        <mxCell id="ndMn5hKnKv3FtZIx1UVw-12" value="" style="shape=partialRectangle;overflow=hidden;connectable=0;fillColor=none;strokeColor=inherit;top=0;left=0;bottom=0;right=0;fontSize=12;" parent="ndMn5hKnKv3FtZIx1UVw-11" vertex="1">
          <mxGeometry width="30" height="30" as="geometry">
            <mxRectangle width="30" height="30" as="alternateBounds" />
          </mxGeometry>
        </mxCell>
        <mxCell id="ndMn5hKnKv3FtZIx1UVw-13" value="tipo ENUM(&#39;admin&#39;, &#39;cliente&#39;) NOT NULL" style="shape=partialRectangle;overflow=hidden;connectable=0;fillColor=none;align=left;strokeColor=inherit;top=0;left=0;bottom=0;right=0;spacingLeft=6;fontSize=12;" parent="ndMn5hKnKv3FtZIx1UVw-11" vertex="1">
          <mxGeometry x="30" width="370" height="30" as="geometry">
            <mxRectangle width="370" height="30" as="alternateBounds" />
          </mxGeometry>
        </mxCell>
        <mxCell id="ndMn5hKnKv3FtZIx1UVw-14" value="" style="shape=tableRow;horizontal=0;startSize=0;swimlaneHead=0;swimlaneBody=0;fillColor=none;collapsible=0;dropTarget=0;points=[[0,0.5],[1,0.5]];portConstraint=eastwest;strokeColor=inherit;top=0;left=0;right=0;bottom=0;fontSize=12;" parent="ndMn5hKnKv3FtZIx1UVw-1" vertex="1">
          <mxGeometry y="160" width="400" height="30" as="geometry" />
        </mxCell>
        <mxCell id="ndMn5hKnKv3FtZIx1UVw-15" value="" style="shape=partialRectangle;overflow=hidden;connectable=0;fillColor=none;strokeColor=inherit;top=0;left=0;bottom=0;right=0;fontSize=12;" parent="ndMn5hKnKv3FtZIx1UVw-14" vertex="1">
          <mxGeometry width="30" height="30" as="geometry">
            <mxRectangle width="30" height="30" as="alternateBounds" />
          </mxGeometry>
        </mxCell>
        <mxCell id="ndMn5hKnKv3FtZIx1UVw-16" value="estado BOOLEAN DEFAULT TRUE, -- Baja lógica" style="shape=partialRectangle;overflow=hidden;connectable=0;fillColor=none;align=left;strokeColor=inherit;top=0;left=0;bottom=0;right=0;spacingLeft=6;fontSize=12;" parent="ndMn5hKnKv3FtZIx1UVw-14" vertex="1">
          <mxGeometry x="30" width="370" height="30" as="geometry">
            <mxRectangle width="370" height="30" as="alternateBounds" />
          </mxGeometry>
        </mxCell>
        <mxCell id="ndMn5hKnKv3FtZIx1UVw-17" value="" style="shape=tableRow;horizontal=0;startSize=0;swimlaneHead=0;swimlaneBody=0;fillColor=none;collapsible=0;dropTarget=0;points=[[0,0.5],[1,0.5]];portConstraint=eastwest;strokeColor=inherit;top=0;left=0;right=0;bottom=0;fontSize=12;" parent="ndMn5hKnKv3FtZIx1UVw-1" vertex="1">
          <mxGeometry y="190" width="400" height="30" as="geometry" />
        </mxCell>
        <mxCell id="ndMn5hKnKv3FtZIx1UVw-18" value="" style="shape=partialRectangle;overflow=hidden;connectable=0;fillColor=none;strokeColor=inherit;top=0;left=0;bottom=0;right=0;fontSize=12;" parent="ndMn5hKnKv3FtZIx1UVw-17" vertex="1">
          <mxGeometry width="30" height="30" as="geometry">
            <mxRectangle width="30" height="30" as="alternateBounds" />
          </mxGeometry>
        </mxCell>
        <mxCell id="ndMn5hKnKv3FtZIx1UVw-19" value="fecha_creacion TIMESTAMP DEFAULT CURRENT_TIMESTAMP" style="shape=partialRectangle;overflow=hidden;connectable=0;fillColor=none;align=left;strokeColor=inherit;top=0;left=0;bottom=0;right=0;spacingLeft=6;fontSize=12;" parent="ndMn5hKnKv3FtZIx1UVw-17" vertex="1">
          <mxGeometry x="30" width="370" height="30" as="geometry">
            <mxRectangle width="370" height="30" as="alternateBounds" />
          </mxGeometry>
        </mxCell>
        <mxCell id="ndMn5hKnKv3FtZIx1UVw-20" value="Cliente" style="shape=table;startSize=40;container=1;collapsible=1;childLayout=tableLayout;fixedRows=1;rowLines=0;fontStyle=1;align=center;resizeLast=1;fontSize=14;" parent="1" vertex="1">
          <mxGeometry x="-477" y="116" width="400" height="474" as="geometry" />
        </mxCell>
        <mxCell id="ndMn5hKnKv3FtZIx1UVw-21" value="" style="shape=tableRow;horizontal=0;startSize=0;swimlaneHead=0;swimlaneBody=0;fillColor=none;collapsible=0;dropTarget=0;points=[[0,0.5],[1,0.5]];portConstraint=eastwest;strokeColor=inherit;top=0;left=0;right=0;bottom=1;fontSize=12;" parent="ndMn5hKnKv3FtZIx1UVw-20" vertex="1">
          <mxGeometry y="40" width="400" height="30" as="geometry" />
        </mxCell>
        <mxCell id="ndMn5hKnKv3FtZIx1UVw-22" value="PK" style="shape=partialRectangle;overflow=hidden;connectable=0;fillColor=none;strokeColor=inherit;top=0;left=0;bottom=0;right=0;fontStyle=1;fontSize=12;" parent="ndMn5hKnKv3FtZIx1UVw-21" vertex="1">
          <mxGeometry width="30" height="30" as="geometry">
            <mxRectangle width="30" height="30" as="alternateBounds" />
          </mxGeometry>
        </mxCell>
        <mxCell id="ndMn5hKnKv3FtZIx1UVw-23" value="id INT AUTO_INCREMENT " style="shape=partialRectangle;overflow=hidden;connectable=0;fillColor=none;align=left;strokeColor=inherit;top=0;left=0;bottom=0;right=0;spacingLeft=6;fontStyle=1;fontSize=12;" parent="ndMn5hKnKv3FtZIx1UVw-21" vertex="1">
          <mxGeometry x="30" width="370" height="30" as="geometry">
            <mxRectangle width="370" height="30" as="alternateBounds" />
          </mxGeometry>
        </mxCell>
        <mxCell id="ndMn5hKnKv3FtZIx1UVw-24" value="" style="shape=tableRow;horizontal=0;startSize=0;swimlaneHead=0;swimlaneBody=0;fillColor=none;collapsible=0;dropTarget=0;points=[[0,0.5],[1,0.5]];portConstraint=eastwest;strokeColor=inherit;top=0;left=0;right=0;bottom=0;fontSize=12;" parent="ndMn5hKnKv3FtZIx1UVw-20" vertex="1">
          <mxGeometry y="70" width="400" height="30" as="geometry" />
        </mxCell>
        <mxCell id="ndMn5hKnKv3FtZIx1UVw-25" value="" style="shape=partialRectangle;overflow=hidden;connectable=0;fillColor=none;strokeColor=inherit;top=0;left=0;bottom=0;right=0;fontSize=12;" parent="ndMn5hKnKv3FtZIx1UVw-24" vertex="1">
          <mxGeometry width="30" height="30" as="geometry">
            <mxRectangle width="30" height="30" as="alternateBounds" />
          </mxGeometry>
        </mxCell>
        <mxCell id="ndMn5hKnKv3FtZIx1UVw-26" value="dni VARCHAR(11) UNIQUE NOT NULL" style="shape=partialRectangle;overflow=hidden;connectable=0;fillColor=none;align=left;strokeColor=inherit;top=0;left=0;bottom=0;right=0;spacingLeft=6;fontSize=12;" parent="ndMn5hKnKv3FtZIx1UVw-24" vertex="1">
          <mxGeometry x="30" width="370" height="30" as="geometry">
            <mxRectangle width="370" height="30" as="alternateBounds" />
          </mxGeometry>
        </mxCell>
        <mxCell id="ndMn5hKnKv3FtZIx1UVw-27" value="" style="shape=tableRow;horizontal=0;startSize=0;swimlaneHead=0;swimlaneBody=0;fillColor=none;collapsible=0;dropTarget=0;points=[[0,0.5],[1,0.5]];portConstraint=eastwest;strokeColor=inherit;top=0;left=0;right=0;bottom=0;fontSize=12;" parent="ndMn5hKnKv3FtZIx1UVw-20" vertex="1">
          <mxGeometry y="100" width="400" height="30" as="geometry" />
        </mxCell>
        <mxCell id="ndMn5hKnKv3FtZIx1UVw-28" value="" style="shape=partialRectangle;overflow=hidden;connectable=0;fillColor=none;strokeColor=inherit;top=0;left=0;bottom=0;right=0;fontSize=12;" parent="ndMn5hKnKv3FtZIx1UVw-27" vertex="1">
          <mxGeometry width="30" height="30" as="geometry">
            <mxRectangle width="30" height="30" as="alternateBounds" />
          </mxGeometry>
        </mxCell>
        <mxCell id="ndMn5hKnKv3FtZIx1UVw-29" value="cuil VARCHAR(11) UNIQUE NOT NULL" style="shape=partialRectangle;overflow=hidden;connectable=0;fillColor=none;align=left;strokeColor=inherit;top=0;left=0;bottom=0;right=0;spacingLeft=6;fontSize=12;" parent="ndMn5hKnKv3FtZIx1UVw-27" vertex="1">
          <mxGeometry x="30" width="370" height="30" as="geometry">
            <mxRectangle width="370" height="30" as="alternateBounds" />
          </mxGeometry>
        </mxCell>
        <mxCell id="ndMn5hKnKv3FtZIx1UVw-30" value="" style="shape=tableRow;horizontal=0;startSize=0;swimlaneHead=0;swimlaneBody=0;fillColor=none;collapsible=0;dropTarget=0;points=[[0,0.5],[1,0.5]];portConstraint=eastwest;strokeColor=inherit;top=0;left=0;right=0;bottom=0;fontSize=12;" parent="ndMn5hKnKv3FtZIx1UVw-20" vertex="1">
          <mxGeometry y="130" width="400" height="30" as="geometry" />
        </mxCell>
        <mxCell id="ndMn5hKnKv3FtZIx1UVw-31" value="" style="shape=partialRectangle;overflow=hidden;connectable=0;fillColor=none;strokeColor=inherit;top=0;left=0;bottom=0;right=0;fontSize=12;" parent="ndMn5hKnKv3FtZIx1UVw-30" vertex="1">
          <mxGeometry width="30" height="30" as="geometry">
            <mxRectangle width="30" height="30" as="alternateBounds" />
          </mxGeometry>
        </mxCell>
        <mxCell id="ndMn5hKnKv3FtZIx1UVw-32" value="nombre VARCHAR(50) NOT NULL" style="shape=partialRectangle;overflow=hidden;connectable=0;fillColor=none;align=left;strokeColor=inherit;top=0;left=0;bottom=0;right=0;spacingLeft=6;fontSize=12;" parent="ndMn5hKnKv3FtZIx1UVw-30" vertex="1">
          <mxGeometry x="30" width="370" height="30" as="geometry">
            <mxRectangle width="370" height="30" as="alternateBounds" />
          </mxGeometry>
        </mxCell>
        <mxCell id="ndMn5hKnKv3FtZIx1UVw-33" value="" style="shape=tableRow;horizontal=0;startSize=0;swimlaneHead=0;swimlaneBody=0;fillColor=none;collapsible=0;dropTarget=0;points=[[0,0.5],[1,0.5]];portConstraint=eastwest;strokeColor=inherit;top=0;left=0;right=0;bottom=0;fontSize=12;" parent="ndMn5hKnKv3FtZIx1UVw-20" vertex="1">
          <mxGeometry y="160" width="400" height="30" as="geometry" />
        </mxCell>
        <mxCell id="ndMn5hKnKv3FtZIx1UVw-34" value="" style="shape=partialRectangle;overflow=hidden;connectable=0;fillColor=none;strokeColor=inherit;top=0;left=0;bottom=0;right=0;fontSize=12;" parent="ndMn5hKnKv3FtZIx1UVw-33" vertex="1">
          <mxGeometry width="30" height="30" as="geometry">
            <mxRectangle width="30" height="30" as="alternateBounds" />
          </mxGeometry>
        </mxCell>
        <mxCell id="ndMn5hKnKv3FtZIx1UVw-35" value="apellido VARCHAR(50) NOT NULL" style="shape=partialRectangle;overflow=hidden;connectable=0;fillColor=none;align=left;strokeColor=inherit;top=0;left=0;bottom=0;right=0;spacingLeft=6;fontSize=12;" parent="ndMn5hKnKv3FtZIx1UVw-33" vertex="1">
          <mxGeometry x="30" width="370" height="30" as="geometry">
            <mxRectangle width="370" height="30" as="alternateBounds" />
          </mxGeometry>
        </mxCell>
        <mxCell id="ndMn5hKnKv3FtZIx1UVw-36" value="" style="shape=tableRow;horizontal=0;startSize=0;swimlaneHead=0;swimlaneBody=0;fillColor=none;collapsible=0;dropTarget=0;points=[[0,0.5],[1,0.5]];portConstraint=eastwest;strokeColor=inherit;top=0;left=0;right=0;bottom=0;fontSize=12;" parent="ndMn5hKnKv3FtZIx1UVw-20" vertex="1">
          <mxGeometry y="190" width="400" height="30" as="geometry" />
        </mxCell>
        <mxCell id="ndMn5hKnKv3FtZIx1UVw-37" value="" style="shape=partialRectangle;overflow=hidden;connectable=0;fillColor=none;strokeColor=inherit;top=0;left=0;bottom=0;right=0;fontSize=12;" parent="ndMn5hKnKv3FtZIx1UVw-36" vertex="1">
          <mxGeometry width="30" height="30" as="geometry">
            <mxRectangle width="30" height="30" as="alternateBounds" />
          </mxGeometry>
        </mxCell>
        <mxCell id="ndMn5hKnKv3FtZIx1UVw-38" value="sexo ENUM(&#39;M&#39;, &#39;F&#39;) NOT NULL" style="shape=partialRectangle;overflow=hidden;connectable=0;fillColor=none;align=left;strokeColor=inherit;top=0;left=0;bottom=0;right=0;spacingLeft=6;fontSize=12;" parent="ndMn5hKnKv3FtZIx1UVw-36" vertex="1">
          <mxGeometry x="30" width="370" height="30" as="geometry">
            <mxRectangle width="370" height="30" as="alternateBounds" />
          </mxGeometry>
        </mxCell>
        <mxCell id="ndMn5hKnKv3FtZIx1UVw-39" value="" style="shape=tableRow;horizontal=0;startSize=0;swimlaneHead=0;swimlaneBody=0;fillColor=none;collapsible=0;dropTarget=0;points=[[0,0.5],[1,0.5]];portConstraint=eastwest;strokeColor=inherit;top=0;left=0;right=0;bottom=0;fontSize=12;" parent="ndMn5hKnKv3FtZIx1UVw-20" vertex="1">
          <mxGeometry y="220" width="400" height="30" as="geometry" />
        </mxCell>
        <mxCell id="ndMn5hKnKv3FtZIx1UVw-40" value="" style="shape=partialRectangle;overflow=hidden;connectable=0;fillColor=none;strokeColor=inherit;top=0;left=0;bottom=0;right=0;fontSize=12;" parent="ndMn5hKnKv3FtZIx1UVw-39" vertex="1">
          <mxGeometry width="30" height="30" as="geometry">
            <mxRectangle width="30" height="30" as="alternateBounds" />
          </mxGeometry>
        </mxCell>
        <mxCell id="ndMn5hKnKv3FtZIx1UVw-41" value="nacionalidad VARCHAR(50) NOT NULL" style="shape=partialRectangle;overflow=hidden;connectable=0;fillColor=none;align=left;strokeColor=inherit;top=0;left=0;bottom=0;right=0;spacingLeft=6;fontSize=12;" parent="ndMn5hKnKv3FtZIx1UVw-39" vertex="1">
          <mxGeometry x="30" width="370" height="30" as="geometry">
            <mxRectangle width="370" height="30" as="alternateBounds" />
          </mxGeometry>
        </mxCell>
        <mxCell id="ndMn5hKnKv3FtZIx1UVw-42" value="" style="shape=tableRow;horizontal=0;startSize=0;swimlaneHead=0;swimlaneBody=0;fillColor=none;collapsible=0;dropTarget=0;points=[[0,0.5],[1,0.5]];portConstraint=eastwest;strokeColor=inherit;top=0;left=0;right=0;bottom=0;fontSize=12;" parent="ndMn5hKnKv3FtZIx1UVw-20" vertex="1">
          <mxGeometry y="250" width="400" height="30" as="geometry" />
        </mxCell>
        <mxCell id="ndMn5hKnKv3FtZIx1UVw-43" value="" style="shape=partialRectangle;overflow=hidden;connectable=0;fillColor=none;strokeColor=inherit;top=0;left=0;bottom=0;right=0;fontSize=12;" parent="ndMn5hKnKv3FtZIx1UVw-42" vertex="1">
          <mxGeometry width="30" height="30" as="geometry">
            <mxRectangle width="30" height="30" as="alternateBounds" />
          </mxGeometry>
        </mxCell>
        <mxCell id="ndMn5hKnKv3FtZIx1UVw-44" value="fecha_nacimiento DATE NOT NULL" style="shape=partialRectangle;overflow=hidden;connectable=0;fillColor=none;align=left;strokeColor=inherit;top=0;left=0;bottom=0;right=0;spacingLeft=6;fontSize=12;" parent="ndMn5hKnKv3FtZIx1UVw-42" vertex="1">
          <mxGeometry x="30" width="370" height="30" as="geometry">
            <mxRectangle width="370" height="30" as="alternateBounds" />
          </mxGeometry>
        </mxCell>
        <mxCell id="ndMn5hKnKv3FtZIx1UVw-45" value="" style="shape=tableRow;horizontal=0;startSize=0;swimlaneHead=0;swimlaneBody=0;fillColor=none;collapsible=0;dropTarget=0;points=[[0,0.5],[1,0.5]];portConstraint=eastwest;strokeColor=inherit;top=0;left=0;right=0;bottom=0;fontSize=12;" parent="ndMn5hKnKv3FtZIx1UVw-20" vertex="1">
          <mxGeometry y="280" width="400" height="30" as="geometry" />
        </mxCell>
        <mxCell id="ndMn5hKnKv3FtZIx1UVw-46" value="" style="shape=partialRectangle;overflow=hidden;connectable=0;fillColor=none;strokeColor=inherit;top=0;left=0;bottom=0;right=0;fontSize=12;" parent="ndMn5hKnKv3FtZIx1UVw-45" vertex="1">
          <mxGeometry width="30" height="30" as="geometry">
            <mxRectangle width="30" height="30" as="alternateBounds" />
          </mxGeometry>
        </mxCell>
        <mxCell id="ndMn5hKnKv3FtZIx1UVw-47" value="direccion VARCHAR(100) NOT NULL" style="shape=partialRectangle;overflow=hidden;connectable=0;fillColor=none;align=left;strokeColor=inherit;top=0;left=0;bottom=0;right=0;spacingLeft=6;fontSize=12;" parent="ndMn5hKnKv3FtZIx1UVw-45" vertex="1">
          <mxGeometry x="30" width="370" height="30" as="geometry">
            <mxRectangle width="370" height="30" as="alternateBounds" />
          </mxGeometry>
        </mxCell>
        <mxCell id="ndMn5hKnKv3FtZIx1UVw-54" value="" style="shape=tableRow;horizontal=0;startSize=0;swimlaneHead=0;swimlaneBody=0;fillColor=none;collapsible=0;dropTarget=0;points=[[0,0.5],[1,0.5]];portConstraint=eastwest;strokeColor=inherit;top=0;left=0;right=0;bottom=0;fontSize=12;" parent="ndMn5hKnKv3FtZIx1UVw-20" vertex="1">
          <mxGeometry y="310" width="400" height="30" as="geometry" />
        </mxCell>
        <mxCell id="ndMn5hKnKv3FtZIx1UVw-55" value="" style="shape=partialRectangle;overflow=hidden;connectable=0;fillColor=none;strokeColor=inherit;top=0;left=0;bottom=0;right=0;fontSize=12;" parent="ndMn5hKnKv3FtZIx1UVw-54" vertex="1">
          <mxGeometry width="30" height="30" as="geometry">
            <mxRectangle width="30" height="30" as="alternateBounds" />
          </mxGeometry>
        </mxCell>
        <mxCell id="ndMn5hKnKv3FtZIx1UVw-56" value="correo VARCHAR(100) UNIQUE NOT NUL" style="shape=partialRectangle;overflow=hidden;connectable=0;fillColor=none;align=left;strokeColor=inherit;top=0;left=0;bottom=0;right=0;spacingLeft=6;fontSize=12;" parent="ndMn5hKnKv3FtZIx1UVw-54" vertex="1">
          <mxGeometry x="30" width="370" height="30" as="geometry">
            <mxRectangle width="370" height="30" as="alternateBounds" />
          </mxGeometry>
        </mxCell>
        <mxCell id="ndMn5hKnKv3FtZIx1UVw-57" value="" style="shape=tableRow;horizontal=0;startSize=0;swimlaneHead=0;swimlaneBody=0;fillColor=none;collapsible=0;dropTarget=0;points=[[0,0.5],[1,0.5]];portConstraint=eastwest;strokeColor=inherit;top=0;left=0;right=0;bottom=0;fontSize=12;" parent="ndMn5hKnKv3FtZIx1UVw-20" vertex="1">
          <mxGeometry y="340" width="400" height="24" as="geometry" />
        </mxCell>
        <mxCell id="ndMn5hKnKv3FtZIx1UVw-58" value="" style="shape=partialRectangle;overflow=hidden;connectable=0;fillColor=none;strokeColor=inherit;top=0;left=0;bottom=0;right=0;fontSize=12;" parent="ndMn5hKnKv3FtZIx1UVw-57" vertex="1">
          <mxGeometry width="30" height="24" as="geometry">
            <mxRectangle width="30" height="24" as="alternateBounds" />
          </mxGeometry>
        </mxCell>
        <mxCell id="ndMn5hKnKv3FtZIx1UVw-59" value="telefono VARCHAR(20) NOT NULL" style="shape=partialRectangle;overflow=hidden;connectable=0;fillColor=none;align=left;strokeColor=inherit;top=0;left=0;bottom=0;right=0;spacingLeft=6;fontSize=12;" parent="ndMn5hKnKv3FtZIx1UVw-57" vertex="1">
          <mxGeometry x="30" width="370" height="24" as="geometry">
            <mxRectangle width="370" height="24" as="alternateBounds" />
          </mxGeometry>
        </mxCell>
        <mxCell id="ndMn5hKnKv3FtZIx1UVw-60" value="" style="shape=tableRow;horizontal=0;startSize=0;swimlaneHead=0;swimlaneBody=0;fillColor=none;collapsible=0;dropTarget=0;points=[[0,0.5],[1,0.5]];portConstraint=eastwest;strokeColor=inherit;top=0;left=0;right=0;bottom=0;fontSize=12;" parent="ndMn5hKnKv3FtZIx1UVw-20" vertex="1">
          <mxGeometry y="364" width="400" height="30" as="geometry" />
        </mxCell>
        <mxCell id="ndMn5hKnKv3FtZIx1UVw-61" value="" style="shape=partialRectangle;overflow=hidden;connectable=0;fillColor=none;strokeColor=inherit;top=0;left=0;bottom=0;right=0;fontSize=12;" parent="ndMn5hKnKv3FtZIx1UVw-60" vertex="1">
          <mxGeometry width="30" height="30" as="geometry">
            <mxRectangle width="30" height="30" as="alternateBounds" />
          </mxGeometry>
        </mxCell>
        <mxCell id="ndMn5hKnKv3FtZIx1UVw-62" value="id_usuario INT NOT NULL" style="shape=partialRectangle;overflow=hidden;connectable=0;fillColor=none;align=left;strokeColor=inherit;top=0;left=0;bottom=0;right=0;spacingLeft=6;fontSize=12;" parent="ndMn5hKnKv3FtZIx1UVw-60" vertex="1">
          <mxGeometry x="30" width="370" height="30" as="geometry">
            <mxRectangle width="370" height="30" as="alternateBounds" />
          </mxGeometry>
        </mxCell>
        <mxCell id="ndMn5hKnKv3FtZIx1UVw-51" value="" style="shape=tableRow;horizontal=0;startSize=0;swimlaneHead=0;swimlaneBody=0;fillColor=none;collapsible=0;dropTarget=0;points=[[0,0.5],[1,0.5]];portConstraint=eastwest;strokeColor=inherit;top=0;left=0;right=0;bottom=0;fontSize=12;" parent="ndMn5hKnKv3FtZIx1UVw-20" vertex="1">
          <mxGeometry y="394" width="400" height="20" as="geometry" />
        </mxCell>
        <mxCell id="ndMn5hKnKv3FtZIx1UVw-52" value="" style="shape=partialRectangle;overflow=hidden;connectable=0;fillColor=none;strokeColor=inherit;top=0;left=0;bottom=0;right=0;fontSize=12;" parent="ndMn5hKnKv3FtZIx1UVw-51" vertex="1">
          <mxGeometry width="30" height="20" as="geometry">
            <mxRectangle width="30" height="20" as="alternateBounds" />
          </mxGeometry>
        </mxCell>
        <mxCell id="ndMn5hKnKv3FtZIx1UVw-53" value="id_localidad INT NOT NULL" style="shape=partialRectangle;overflow=hidden;connectable=0;fillColor=none;align=left;strokeColor=inherit;top=0;left=0;bottom=0;right=0;spacingLeft=6;fontSize=12;" parent="ndMn5hKnKv3FtZIx1UVw-51" vertex="1">
          <mxGeometry x="30" width="370" height="20" as="geometry">
            <mxRectangle width="370" height="20" as="alternateBounds" />
          </mxGeometry>
        </mxCell>
        <mxCell id="ndMn5hKnKv3FtZIx1UVw-63" value="" style="shape=tableRow;horizontal=0;startSize=0;swimlaneHead=0;swimlaneBody=0;fillColor=none;collapsible=0;dropTarget=0;points=[[0,0.5],[1,0.5]];portConstraint=eastwest;strokeColor=inherit;top=0;left=0;right=0;bottom=0;fontSize=12;" parent="ndMn5hKnKv3FtZIx1UVw-20" vertex="1">
          <mxGeometry y="414" width="400" height="30" as="geometry" />
        </mxCell>
        <mxCell id="ndMn5hKnKv3FtZIx1UVw-64" value="" style="shape=partialRectangle;overflow=hidden;connectable=0;fillColor=none;strokeColor=inherit;top=0;left=0;bottom=0;right=0;fontSize=12;" parent="ndMn5hKnKv3FtZIx1UVw-63" vertex="1">
          <mxGeometry width="30" height="30" as="geometry">
            <mxRectangle width="30" height="30" as="alternateBounds" />
          </mxGeometry>
        </mxCell>
        <mxCell id="ndMn5hKnKv3FtZIx1UVw-65" value="FOREIGN KEY (id_usuario) REFERENCES Usuario(id)" style="shape=partialRectangle;overflow=hidden;connectable=0;fillColor=none;align=left;strokeColor=inherit;top=0;left=0;bottom=0;right=0;spacingLeft=6;fontSize=12;" parent="ndMn5hKnKv3FtZIx1UVw-63" vertex="1">
          <mxGeometry x="30" width="370" height="30" as="geometry">
            <mxRectangle width="370" height="30" as="alternateBounds" />
          </mxGeometry>
        </mxCell>
        <mxCell id="ndMn5hKnKv3FtZIx1UVw-48" value="" style="shape=tableRow;horizontal=0;startSize=0;swimlaneHead=0;swimlaneBody=0;fillColor=none;collapsible=0;dropTarget=0;points=[[0,0.5],[1,0.5]];portConstraint=eastwest;strokeColor=inherit;top=0;left=0;right=0;bottom=0;fontSize=12;" parent="ndMn5hKnKv3FtZIx1UVw-20" vertex="1">
          <mxGeometry y="444" width="400" height="30" as="geometry" />
        </mxCell>
        <mxCell id="ndMn5hKnKv3FtZIx1UVw-49" value="" style="shape=partialRectangle;overflow=hidden;connectable=0;fillColor=none;strokeColor=inherit;top=0;left=0;bottom=0;right=0;fontSize=12;" parent="ndMn5hKnKv3FtZIx1UVw-48" vertex="1">
          <mxGeometry width="30" height="30" as="geometry">
            <mxRectangle width="30" height="30" as="alternateBounds" />
          </mxGeometry>
        </mxCell>
        <mxCell id="ndMn5hKnKv3FtZIx1UVw-50" value="FOREIGN KEY(id_localidad) REFERENCES Localidad(id)" style="shape=partialRectangle;overflow=hidden;connectable=0;fillColor=none;align=left;strokeColor=inherit;top=0;left=0;bottom=0;right=0;spacingLeft=6;fontSize=12;" parent="ndMn5hKnKv3FtZIx1UVw-48" vertex="1">
          <mxGeometry x="30" width="370" height="30" as="geometry">
            <mxRectangle width="370" height="30" as="alternateBounds" />
          </mxGeometry>
        </mxCell>
        <mxCell id="ndMn5hKnKv3FtZIx1UVw-67" value="" style="edgeStyle=entityRelationEdgeStyle;fontSize=12;html=1;endArrow=ERmandOne;startArrow=ERmandOne;rounded=0;exitX=0;exitY=0.5;exitDx=0;exitDy=0;strokeColor=none;" parent="1" source="ndMn5hKnKv3FtZIx1UVw-60" edge="1">
          <mxGeometry width="100" height="100" relative="1" as="geometry">
            <mxPoint x="-350" y="450" as="sourcePoint" />
            <mxPoint x="-330" y="170" as="targetPoint" />
            <Array as="points">
              <mxPoint x="-400" y="320" />
              <mxPoint x="-310" y="680" />
              <mxPoint x="-340" y="640" />
              <mxPoint x="-370" y="300" />
            </Array>
          </mxGeometry>
        </mxCell>
        <mxCell id="ndMn5hKnKv3FtZIx1UVw-68" value="" style="fontSize=10;html=1;endArrow=ERmandOne;startArrow=ERmandOne;rounded=0;movable=1;editable=1;resizable=1;rotatable=1;deletable=1;locked=0;connectable=1;metaEdit=1;strokeColor=default;entryX=1;entryY=0.5;entryDx=0;entryDy=0;exitX=0;exitY=0.5;exitDx=0;exitDy=0;" parent="1" source="ndMn5hKnKv3FtZIx1UVw-2" target="ndMn5hKnKv3FtZIx1UVw-21" edge="1">
          <mxGeometry width="100" height="100" relative="1" as="geometry">
            <mxPoint x="27" y="160" as="sourcePoint" />
            <mxPoint x="-203" y="330" as="targetPoint" />
            <Array as="points" />
          </mxGeometry>
        </mxCell>
        <mxCell id="L1iufJ8MZfSl2Ixz4ygW-2" value="Movimientos" style="shape=table;startSize=30;container=1;collapsible=1;childLayout=tableLayout;fixedRows=1;rowLines=0;fontStyle=1;align=center;resizeLast=1;fontSize=14;" parent="1" vertex="1">
          <mxGeometry x="-480" y="650" width="403" height="330" as="geometry" />
        </mxCell>
        <mxCell id="L1iufJ8MZfSl2Ixz4ygW-3" value="" style="shape=tableRow;horizontal=0;startSize=0;swimlaneHead=0;swimlaneBody=0;fillColor=none;collapsible=0;dropTarget=0;points=[[0,0.5],[1,0.5]];portConstraint=eastwest;strokeColor=inherit;top=0;left=0;right=0;bottom=1;fontSize=12;" parent="L1iufJ8MZfSl2Ixz4ygW-2" vertex="1">
          <mxGeometry y="30" width="403" height="30" as="geometry" />
        </mxCell>
        <mxCell id="L1iufJ8MZfSl2Ixz4ygW-4" value="PK" style="shape=partialRectangle;overflow=hidden;connectable=0;fillColor=none;strokeColor=inherit;top=0;left=0;bottom=0;right=0;fontStyle=1;fontSize=12;" parent="L1iufJ8MZfSl2Ixz4ygW-3" vertex="1">
          <mxGeometry width="30" height="30" as="geometry">
            <mxRectangle width="30" height="30" as="alternateBounds" />
          </mxGeometry>
        </mxCell>
        <mxCell id="L1iufJ8MZfSl2Ixz4ygW-5" value="id_movimiento INT AUTO_INCREMENT " style="shape=partialRectangle;overflow=hidden;connectable=0;fillColor=none;align=left;strokeColor=inherit;top=0;left=0;bottom=0;right=0;spacingLeft=6;fontStyle=1;fontSize=12;" parent="L1iufJ8MZfSl2Ixz4ygW-3" vertex="1">
          <mxGeometry x="30" width="373" height="30" as="geometry">
            <mxRectangle width="373" height="30" as="alternateBounds" />
          </mxGeometry>
        </mxCell>
        <mxCell id="L1iufJ8MZfSl2Ixz4ygW-6" value="" style="shape=tableRow;horizontal=0;startSize=0;swimlaneHead=0;swimlaneBody=0;fillColor=none;collapsible=0;dropTarget=0;points=[[0,0.5],[1,0.5]];portConstraint=eastwest;strokeColor=inherit;top=0;left=0;right=0;bottom=0;fontSize=12;" parent="L1iufJ8MZfSl2Ixz4ygW-2" vertex="1">
          <mxGeometry y="60" width="403" height="30" as="geometry" />
        </mxCell>
        <mxCell id="L1iufJ8MZfSl2Ixz4ygW-7" value="" style="shape=partialRectangle;overflow=hidden;connectable=0;fillColor=none;strokeColor=inherit;top=0;left=0;bottom=0;right=0;fontSize=12;" parent="L1iufJ8MZfSl2Ixz4ygW-6" vertex="1">
          <mxGeometry width="30" height="30" as="geometry">
            <mxRectangle width="30" height="30" as="alternateBounds" />
          </mxGeometry>
        </mxCell>
        <mxCell id="L1iufJ8MZfSl2Ixz4ygW-8" value="id_cuenta INT NOT NULL" style="shape=partialRectangle;overflow=hidden;connectable=0;fillColor=none;align=left;strokeColor=inherit;top=0;left=0;bottom=0;right=0;spacingLeft=6;fontSize=12;" parent="L1iufJ8MZfSl2Ixz4ygW-6" vertex="1">
          <mxGeometry x="30" width="373" height="30" as="geometry">
            <mxRectangle width="373" height="30" as="alternateBounds" />
          </mxGeometry>
        </mxCell>
        <mxCell id="L1iufJ8MZfSl2Ixz4ygW-98" value="" style="shape=tableRow;horizontal=0;startSize=0;swimlaneHead=0;swimlaneBody=0;fillColor=none;collapsible=0;dropTarget=0;points=[[0,0.5],[1,0.5]];portConstraint=eastwest;strokeColor=inherit;top=0;left=0;right=0;bottom=0;fontSize=12;" parent="L1iufJ8MZfSl2Ixz4ygW-2" vertex="1">
          <mxGeometry y="90" width="403" height="30" as="geometry" />
        </mxCell>
        <mxCell id="L1iufJ8MZfSl2Ixz4ygW-99" value="" style="shape=partialRectangle;overflow=hidden;connectable=0;fillColor=none;strokeColor=inherit;top=0;left=0;bottom=0;right=0;fontSize=12;" parent="L1iufJ8MZfSl2Ixz4ygW-98" vertex="1">
          <mxGeometry width="30" height="30" as="geometry">
            <mxRectangle width="30" height="30" as="alternateBounds" />
          </mxGeometry>
        </mxCell>
        <mxCell id="L1iufJ8MZfSl2Ixz4ygW-100" value="tipo_movimiento INT NOT NULL" style="shape=partialRectangle;overflow=hidden;connectable=0;fillColor=none;align=left;strokeColor=inherit;top=0;left=0;bottom=0;right=0;spacingLeft=6;fontSize=12;" parent="L1iufJ8MZfSl2Ixz4ygW-98" vertex="1">
          <mxGeometry x="30" width="373" height="30" as="geometry">
            <mxRectangle width="373" height="30" as="alternateBounds" />
          </mxGeometry>
        </mxCell>
        <mxCell id="L1iufJ8MZfSl2Ixz4ygW-9" value="" style="shape=tableRow;horizontal=0;startSize=0;swimlaneHead=0;swimlaneBody=0;fillColor=none;collapsible=0;dropTarget=0;points=[[0,0.5],[1,0.5]];portConstraint=eastwest;strokeColor=inherit;top=0;left=0;right=0;bottom=0;fontSize=12;" parent="L1iufJ8MZfSl2Ixz4ygW-2" vertex="1">
          <mxGeometry y="120" width="403" height="30" as="geometry" />
        </mxCell>
        <mxCell id="L1iufJ8MZfSl2Ixz4ygW-10" value="" style="shape=partialRectangle;overflow=hidden;connectable=0;fillColor=none;strokeColor=inherit;top=0;left=0;bottom=0;right=0;fontSize=12;" parent="L1iufJ8MZfSl2Ixz4ygW-9" vertex="1">
          <mxGeometry width="30" height="30" as="geometry">
            <mxRectangle width="30" height="30" as="alternateBounds" />
          </mxGeometry>
        </mxCell>
        <mxCell id="L1iufJ8MZfSl2Ixz4ygW-11" value="detalle VARCHAR(100) NOT NULL" style="shape=partialRectangle;overflow=hidden;connectable=0;fillColor=none;align=left;strokeColor=inherit;top=0;left=0;bottom=0;right=0;spacingLeft=6;fontSize=12;" parent="L1iufJ8MZfSl2Ixz4ygW-9" vertex="1">
          <mxGeometry x="30" width="373" height="30" as="geometry">
            <mxRectangle width="373" height="30" as="alternateBounds" />
          </mxGeometry>
        </mxCell>
        <mxCell id="L1iufJ8MZfSl2Ixz4ygW-12" value="" style="shape=tableRow;horizontal=0;startSize=0;swimlaneHead=0;swimlaneBody=0;fillColor=none;collapsible=0;dropTarget=0;points=[[0,0.5],[1,0.5]];portConstraint=eastwest;strokeColor=inherit;top=0;left=0;right=0;bottom=0;fontSize=12;" parent="L1iufJ8MZfSl2Ixz4ygW-2" vertex="1">
          <mxGeometry y="150" width="403" height="30" as="geometry" />
        </mxCell>
        <mxCell id="L1iufJ8MZfSl2Ixz4ygW-13" value="" style="shape=partialRectangle;overflow=hidden;connectable=0;fillColor=none;strokeColor=inherit;top=0;left=0;bottom=0;right=0;fontSize=12;" parent="L1iufJ8MZfSl2Ixz4ygW-12" vertex="1">
          <mxGeometry width="30" height="30" as="geometry">
            <mxRectangle width="30" height="30" as="alternateBounds" />
          </mxGeometry>
        </mxCell>
        <mxCell id="L1iufJ8MZfSl2Ixz4ygW-14" value="fechaHora_movimiento DATETIME NOT NULL" style="shape=partialRectangle;overflow=hidden;connectable=0;fillColor=none;align=left;strokeColor=inherit;top=0;left=0;bottom=0;right=0;spacingLeft=6;fontSize=12;" parent="L1iufJ8MZfSl2Ixz4ygW-12" vertex="1">
          <mxGeometry x="30" width="373" height="30" as="geometry">
            <mxRectangle width="373" height="30" as="alternateBounds" />
          </mxGeometry>
        </mxCell>
        <mxCell id="L1iufJ8MZfSl2Ixz4ygW-79" value="" style="shape=tableRow;horizontal=0;startSize=0;swimlaneHead=0;swimlaneBody=0;fillColor=none;collapsible=0;dropTarget=0;points=[[0,0.5],[1,0.5]];portConstraint=eastwest;strokeColor=inherit;top=0;left=0;right=0;bottom=0;fontSize=12;strokeWidth=1;" parent="L1iufJ8MZfSl2Ixz4ygW-2" vertex="1">
          <mxGeometry y="180" width="403" height="30" as="geometry" />
        </mxCell>
        <mxCell id="L1iufJ8MZfSl2Ixz4ygW-80" value="" style="shape=partialRectangle;overflow=hidden;connectable=0;fillColor=none;strokeColor=inherit;top=0;left=0;bottom=0;right=0;fontSize=12;" parent="L1iufJ8MZfSl2Ixz4ygW-79" vertex="1">
          <mxGeometry width="30" height="30" as="geometry">
            <mxRectangle width="30" height="30" as="alternateBounds" />
          </mxGeometry>
        </mxCell>
        <mxCell id="L1iufJ8MZfSl2Ixz4ygW-81" value="importe DECIMAL NOT NULL" style="shape=partialRectangle;overflow=hidden;connectable=0;fillColor=none;align=left;strokeColor=inherit;top=0;left=0;bottom=0;right=0;spacingLeft=6;fontSize=12;whiteSpace=wrap;" parent="L1iufJ8MZfSl2Ixz4ygW-79" vertex="1">
          <mxGeometry x="30" width="373" height="30" as="geometry">
            <mxRectangle width="373" height="30" as="alternateBounds" />
          </mxGeometry>
        </mxCell>
        <mxCell id="L1iufJ8MZfSl2Ixz4ygW-85" value="" style="shape=tableRow;horizontal=0;startSize=0;swimlaneHead=0;swimlaneBody=0;fillColor=none;collapsible=0;dropTarget=0;points=[[0,0.5],[1,0.5]];portConstraint=eastwest;strokeColor=inherit;top=0;left=0;right=0;bottom=0;fontSize=12;strokeWidth=1;" parent="L1iufJ8MZfSl2Ixz4ygW-2" vertex="1">
          <mxGeometry y="210" width="403" height="30" as="geometry" />
        </mxCell>
        <mxCell id="L1iufJ8MZfSl2Ixz4ygW-86" value="" style="shape=partialRectangle;overflow=hidden;connectable=0;fillColor=none;strokeColor=inherit;top=0;left=0;bottom=0;right=0;fontSize=12;" parent="L1iufJ8MZfSl2Ixz4ygW-85" vertex="1">
          <mxGeometry width="30" height="30" as="geometry">
            <mxRectangle width="30" height="30" as="alternateBounds" />
          </mxGeometry>
        </mxCell>
        <mxCell id="L1iufJ8MZfSl2Ixz4ygW-87" value="id_cuentaDestinatario INT NULL" style="shape=partialRectangle;overflow=hidden;connectable=0;fillColor=none;align=left;strokeColor=inherit;top=0;left=0;bottom=0;right=0;spacingLeft=6;fontSize=12;whiteSpace=wrap;" parent="L1iufJ8MZfSl2Ixz4ygW-85" vertex="1">
          <mxGeometry x="30" width="373" height="30" as="geometry">
            <mxRectangle width="373" height="30" as="alternateBounds" />
          </mxGeometry>
        </mxCell>
        <mxCell id="L1iufJ8MZfSl2Ixz4ygW-15" value="" style="shape=tableRow;horizontal=0;startSize=0;swimlaneHead=0;swimlaneBody=0;fillColor=none;collapsible=0;dropTarget=0;points=[[0,0.5],[1,0.5]];portConstraint=eastwest;strokeColor=inherit;top=0;left=0;right=0;bottom=0;fontSize=12;" parent="L1iufJ8MZfSl2Ixz4ygW-2" vertex="1">
          <mxGeometry y="240" width="403" height="30" as="geometry" />
        </mxCell>
        <mxCell id="L1iufJ8MZfSl2Ixz4ygW-16" value="" style="shape=partialRectangle;overflow=hidden;connectable=0;fillColor=none;strokeColor=inherit;top=0;left=0;bottom=0;right=0;fontSize=12;" parent="L1iufJ8MZfSl2Ixz4ygW-15" vertex="1">
          <mxGeometry width="30" height="30" as="geometry">
            <mxRectangle width="30" height="30" as="alternateBounds" />
          </mxGeometry>
        </mxCell>
        <mxCell id="L1iufJ8MZfSl2Ixz4ygW-17" value="FOREIGN KEY (id_cuenta) REFERENCES Cuentas(id_cuenta)," style="shape=partialRectangle;overflow=hidden;connectable=0;fillColor=none;align=left;strokeColor=inherit;top=0;left=0;bottom=0;right=0;spacingLeft=6;fontSize=12;" parent="L1iufJ8MZfSl2Ixz4ygW-15" vertex="1">
          <mxGeometry x="30" width="373" height="30" as="geometry">
            <mxRectangle width="373" height="30" as="alternateBounds" />
          </mxGeometry>
        </mxCell>
        <mxCell id="L1iufJ8MZfSl2Ixz4ygW-82" value="" style="shape=tableRow;horizontal=0;startSize=0;swimlaneHead=0;swimlaneBody=0;fillColor=none;collapsible=0;dropTarget=0;points=[[0,0.5],[1,0.5]];portConstraint=eastwest;strokeColor=inherit;top=0;left=0;right=0;bottom=0;fontSize=12;" parent="L1iufJ8MZfSl2Ixz4ygW-2" vertex="1">
          <mxGeometry y="270" width="403" height="30" as="geometry" />
        </mxCell>
        <mxCell id="L1iufJ8MZfSl2Ixz4ygW-83" value="" style="shape=partialRectangle;overflow=hidden;connectable=0;fillColor=none;strokeColor=inherit;top=0;left=0;bottom=0;right=0;fontSize=12;" parent="L1iufJ8MZfSl2Ixz4ygW-82" vertex="1">
          <mxGeometry width="30" height="30" as="geometry">
            <mxRectangle width="30" height="30" as="alternateBounds" />
          </mxGeometry>
        </mxCell>
        <mxCell id="L1iufJ8MZfSl2Ixz4ygW-84" value="FOREIGN KEY (tipo_movimiento) REFERENCES Tipos_de_movimientos(id_tipoMovimiento)" style="shape=partialRectangle;overflow=hidden;connectable=0;fillColor=none;align=left;strokeColor=inherit;top=0;left=0;bottom=0;right=0;spacingLeft=6;fontSize=12;" parent="L1iufJ8MZfSl2Ixz4ygW-82" vertex="1">
          <mxGeometry x="30" width="373" height="30" as="geometry">
            <mxRectangle width="373" height="30" as="alternateBounds" />
          </mxGeometry>
        </mxCell>
        <mxCell id="L1iufJ8MZfSl2Ixz4ygW-88" value="" style="shape=tableRow;horizontal=0;startSize=0;swimlaneHead=0;swimlaneBody=0;fillColor=none;collapsible=0;dropTarget=0;points=[[0,0.5],[1,0.5]];portConstraint=eastwest;strokeColor=inherit;top=0;left=0;right=0;bottom=0;fontSize=12;" parent="L1iufJ8MZfSl2Ixz4ygW-2" vertex="1">
          <mxGeometry y="300" width="403" height="30" as="geometry" />
        </mxCell>
        <mxCell id="L1iufJ8MZfSl2Ixz4ygW-89" value="" style="shape=partialRectangle;overflow=hidden;connectable=0;fillColor=none;strokeColor=inherit;top=0;left=0;bottom=0;right=0;fontSize=12;" parent="L1iufJ8MZfSl2Ixz4ygW-88" vertex="1">
          <mxGeometry width="30" height="30" as="geometry">
            <mxRectangle width="30" height="30" as="alternateBounds" />
          </mxGeometry>
        </mxCell>
        <mxCell id="L1iufJ8MZfSl2Ixz4ygW-90" value="FOREIGN KEY (id_cuentaDestinatario) REFERENCES Cuentas(id_cuenta)" style="shape=partialRectangle;overflow=hidden;connectable=0;fillColor=none;align=left;strokeColor=inherit;top=0;left=0;bottom=0;right=0;spacingLeft=6;fontSize=12;" parent="L1iufJ8MZfSl2Ixz4ygW-88" vertex="1">
          <mxGeometry x="30" width="373" height="30" as="geometry">
            <mxRectangle width="373" height="30" as="alternateBounds" />
          </mxGeometry>
        </mxCell>
        <mxCell id="L1iufJ8MZfSl2Ixz4ygW-21" value="Tipos_de_movimientos" style="shape=table;startSize=30;container=1;collapsible=1;childLayout=tableLayout;fixedRows=1;rowLines=0;fontStyle=1;align=center;resizeLast=1;fontSize=14;" parent="1" vertex="1">
          <mxGeometry x="-480" y="1030" width="403" height="90" as="geometry" />
        </mxCell>
        <mxCell id="L1iufJ8MZfSl2Ixz4ygW-22" value="" style="shape=tableRow;horizontal=0;startSize=0;swimlaneHead=0;swimlaneBody=0;fillColor=none;collapsible=0;dropTarget=0;points=[[0,0.5],[1,0.5]];portConstraint=eastwest;strokeColor=inherit;top=0;left=0;right=0;bottom=1;fontSize=12;" parent="L1iufJ8MZfSl2Ixz4ygW-21" vertex="1">
          <mxGeometry y="30" width="403" height="30" as="geometry" />
        </mxCell>
        <mxCell id="L1iufJ8MZfSl2Ixz4ygW-23" value="PK" style="shape=partialRectangle;overflow=hidden;connectable=0;fillColor=none;strokeColor=inherit;top=0;left=0;bottom=0;right=0;fontStyle=1;fontSize=12;" parent="L1iufJ8MZfSl2Ixz4ygW-22" vertex="1">
          <mxGeometry width="30" height="30" as="geometry">
            <mxRectangle width="30" height="30" as="alternateBounds" />
          </mxGeometry>
        </mxCell>
        <mxCell id="L1iufJ8MZfSl2Ixz4ygW-24" value="id_tipoMovimiento INT AUTO_INCREMENT " style="shape=partialRectangle;overflow=hidden;connectable=0;fillColor=none;align=left;strokeColor=inherit;top=0;left=0;bottom=0;right=0;spacingLeft=6;fontStyle=1;fontSize=12;" parent="L1iufJ8MZfSl2Ixz4ygW-22" vertex="1">
          <mxGeometry x="30" width="373" height="30" as="geometry">
            <mxRectangle width="373" height="30" as="alternateBounds" />
          </mxGeometry>
        </mxCell>
        <mxCell id="L1iufJ8MZfSl2Ixz4ygW-28" value="" style="shape=tableRow;horizontal=0;startSize=0;swimlaneHead=0;swimlaneBody=0;fillColor=none;collapsible=0;dropTarget=0;points=[[0,0.5],[1,0.5]];portConstraint=eastwest;strokeColor=inherit;top=0;left=0;right=0;bottom=0;fontSize=12;" parent="L1iufJ8MZfSl2Ixz4ygW-21" vertex="1">
          <mxGeometry y="60" width="403" height="30" as="geometry" />
        </mxCell>
        <mxCell id="L1iufJ8MZfSl2Ixz4ygW-29" value="" style="shape=partialRectangle;overflow=hidden;connectable=0;fillColor=none;strokeColor=inherit;top=0;left=0;bottom=0;right=0;fontSize=12;" parent="L1iufJ8MZfSl2Ixz4ygW-28" vertex="1">
          <mxGeometry width="30" height="30" as="geometry">
            <mxRectangle width="30" height="30" as="alternateBounds" />
          </mxGeometry>
        </mxCell>
        <mxCell id="L1iufJ8MZfSl2Ixz4ygW-30" value="descripcion VARCHAR(25) NOT NULL" style="shape=partialRectangle;overflow=hidden;connectable=0;fillColor=none;align=left;strokeColor=inherit;top=0;left=0;bottom=0;right=0;spacingLeft=6;fontSize=12;" parent="L1iufJ8MZfSl2Ixz4ygW-28" vertex="1">
          <mxGeometry x="30" width="373" height="30" as="geometry">
            <mxRectangle width="373" height="30" as="alternateBounds" />
          </mxGeometry>
        </mxCell>
        <mxCell id="L1iufJ8MZfSl2Ixz4ygW-41" value="Cuentas" style="shape=table;startSize=30;container=1;collapsible=1;childLayout=tableLayout;fixedRows=1;rowLines=0;fontStyle=1;align=center;resizeLast=1;fontSize=14;" parent="1" vertex="1">
          <mxGeometry y="370" width="440" height="330" as="geometry" />
        </mxCell>
        <mxCell id="L1iufJ8MZfSl2Ixz4ygW-42" value="" style="shape=tableRow;horizontal=0;startSize=0;swimlaneHead=0;swimlaneBody=0;fillColor=none;collapsible=0;dropTarget=0;points=[[0,0.5],[1,0.5]];portConstraint=eastwest;strokeColor=inherit;top=0;left=0;right=0;bottom=1;fontSize=12;" parent="L1iufJ8MZfSl2Ixz4ygW-41" vertex="1">
          <mxGeometry y="30" width="440" height="30" as="geometry" />
        </mxCell>
        <mxCell id="L1iufJ8MZfSl2Ixz4ygW-43" value="PK" style="shape=partialRectangle;overflow=hidden;connectable=0;fillColor=none;strokeColor=inherit;top=0;left=0;bottom=0;right=0;fontStyle=1;fontSize=12;" parent="L1iufJ8MZfSl2Ixz4ygW-42" vertex="1">
          <mxGeometry width="30" height="30" as="geometry">
            <mxRectangle width="30" height="30" as="alternateBounds" />
          </mxGeometry>
        </mxCell>
        <mxCell id="L1iufJ8MZfSl2Ixz4ygW-44" value=" id_cuenta INT AUTO_INCREMENT PRIMARY KEY" style="shape=partialRectangle;overflow=hidden;connectable=0;fillColor=none;align=left;strokeColor=inherit;top=0;left=0;bottom=0;right=0;spacingLeft=6;fontStyle=1;fontSize=12;" parent="L1iufJ8MZfSl2Ixz4ygW-42" vertex="1">
          <mxGeometry x="30" width="410" height="30" as="geometry">
            <mxRectangle width="410" height="30" as="alternateBounds" />
          </mxGeometry>
        </mxCell>
        <mxCell id="L1iufJ8MZfSl2Ixz4ygW-45" value="" style="shape=tableRow;horizontal=0;startSize=0;swimlaneHead=0;swimlaneBody=0;fillColor=none;collapsible=0;dropTarget=0;points=[[0,0.5],[1,0.5]];portConstraint=eastwest;strokeColor=inherit;top=0;left=0;right=0;bottom=0;fontSize=12;" parent="L1iufJ8MZfSl2Ixz4ygW-41" vertex="1">
          <mxGeometry y="60" width="440" height="30" as="geometry" />
        </mxCell>
        <mxCell id="L1iufJ8MZfSl2Ixz4ygW-46" value="" style="shape=partialRectangle;overflow=hidden;connectable=0;fillColor=none;strokeColor=inherit;top=0;left=0;bottom=0;right=0;fontSize=12;" parent="L1iufJ8MZfSl2Ixz4ygW-45" vertex="1">
          <mxGeometry width="30" height="30" as="geometry">
            <mxRectangle width="30" height="30" as="alternateBounds" />
          </mxGeometry>
        </mxCell>
        <mxCell id="L1iufJ8MZfSl2Ixz4ygW-47" value="numero_cuenta VARCHAR(20) NOT NULL UNIQUE" style="shape=partialRectangle;overflow=hidden;connectable=0;fillColor=none;align=left;strokeColor=inherit;top=0;left=0;bottom=0;right=0;spacingLeft=6;fontSize=12;" parent="L1iufJ8MZfSl2Ixz4ygW-45" vertex="1">
          <mxGeometry x="30" width="410" height="30" as="geometry">
            <mxRectangle width="410" height="30" as="alternateBounds" />
          </mxGeometry>
        </mxCell>
        <mxCell id="L1iufJ8MZfSl2Ixz4ygW-51" value="" style="shape=tableRow;horizontal=0;startSize=0;swimlaneHead=0;swimlaneBody=0;fillColor=none;collapsible=0;dropTarget=0;points=[[0,0.5],[1,0.5]];portConstraint=eastwest;strokeColor=inherit;top=0;left=0;right=0;bottom=0;fontSize=12;" parent="L1iufJ8MZfSl2Ixz4ygW-41" vertex="1">
          <mxGeometry y="90" width="440" height="30" as="geometry" />
        </mxCell>
        <mxCell id="L1iufJ8MZfSl2Ixz4ygW-52" value="" style="shape=partialRectangle;overflow=hidden;connectable=0;fillColor=none;strokeColor=inherit;top=0;left=0;bottom=0;right=0;fontSize=12;" parent="L1iufJ8MZfSl2Ixz4ygW-51" vertex="1">
          <mxGeometry width="30" height="30" as="geometry">
            <mxRectangle width="30" height="30" as="alternateBounds" />
          </mxGeometry>
        </mxCell>
        <mxCell id="L1iufJ8MZfSl2Ixz4ygW-53" value="fecha_creacion DATETIME DEFAULT CURRENT_TIMESTAMP" style="shape=partialRectangle;overflow=hidden;connectable=0;fillColor=none;align=left;strokeColor=inherit;top=0;left=0;bottom=0;right=0;spacingLeft=6;fontSize=12;" parent="L1iufJ8MZfSl2Ixz4ygW-51" vertex="1">
          <mxGeometry x="30" width="410" height="30" as="geometry">
            <mxRectangle width="410" height="30" as="alternateBounds" />
          </mxGeometry>
        </mxCell>
        <mxCell id="L1iufJ8MZfSl2Ixz4ygW-54" value="" style="shape=tableRow;horizontal=0;startSize=0;swimlaneHead=0;swimlaneBody=0;fillColor=none;collapsible=0;dropTarget=0;points=[[0,0.5],[1,0.5]];portConstraint=eastwest;strokeColor=inherit;top=0;left=0;right=0;bottom=0;fontSize=12;" parent="L1iufJ8MZfSl2Ixz4ygW-41" vertex="1">
          <mxGeometry y="120" width="440" height="30" as="geometry" />
        </mxCell>
        <mxCell id="L1iufJ8MZfSl2Ixz4ygW-55" value="" style="shape=partialRectangle;overflow=hidden;connectable=0;fillColor=none;strokeColor=inherit;top=0;left=0;bottom=0;right=0;fontSize=12;" parent="L1iufJ8MZfSl2Ixz4ygW-54" vertex="1">
          <mxGeometry width="30" height="30" as="geometry">
            <mxRectangle width="30" height="30" as="alternateBounds" />
          </mxGeometry>
        </mxCell>
        <mxCell id="L1iufJ8MZfSl2Ixz4ygW-56" value="cbu VARCHAR(22) UNIQUE NOT NULL" style="shape=partialRectangle;overflow=hidden;connectable=0;fillColor=none;align=left;strokeColor=inherit;top=0;left=0;bottom=0;right=0;spacingLeft=6;fontSize=12;" parent="L1iufJ8MZfSl2Ixz4ygW-54" vertex="1">
          <mxGeometry x="30" width="410" height="30" as="geometry">
            <mxRectangle width="410" height="30" as="alternateBounds" />
          </mxGeometry>
        </mxCell>
        <mxCell id="L1iufJ8MZfSl2Ixz4ygW-64" value="" style="shape=tableRow;horizontal=0;startSize=0;swimlaneHead=0;swimlaneBody=0;fillColor=none;collapsible=0;dropTarget=0;points=[[0,0.5],[1,0.5]];portConstraint=eastwest;strokeColor=inherit;top=0;left=0;right=0;bottom=0;fontSize=12;" parent="L1iufJ8MZfSl2Ixz4ygW-41" vertex="1">
          <mxGeometry y="150" width="440" height="30" as="geometry" />
        </mxCell>
        <mxCell id="L1iufJ8MZfSl2Ixz4ygW-65" value="" style="shape=partialRectangle;overflow=hidden;connectable=0;fillColor=none;strokeColor=inherit;top=0;left=0;bottom=0;right=0;fontSize=12;" parent="L1iufJ8MZfSl2Ixz4ygW-64" vertex="1">
          <mxGeometry width="30" height="30" as="geometry">
            <mxRectangle width="30" height="30" as="alternateBounds" />
          </mxGeometry>
        </mxCell>
        <mxCell id="L1iufJ8MZfSl2Ixz4ygW-66" value="saldo DECIMAL(15, 2) NOT NULL DEFAULT 10000.00" style="shape=partialRectangle;overflow=hidden;connectable=0;fillColor=none;align=left;strokeColor=inherit;top=0;left=0;bottom=0;right=0;spacingLeft=6;fontSize=12;" parent="L1iufJ8MZfSl2Ixz4ygW-64" vertex="1">
          <mxGeometry x="30" width="410" height="30" as="geometry">
            <mxRectangle width="410" height="30" as="alternateBounds" />
          </mxGeometry>
        </mxCell>
        <mxCell id="L1iufJ8MZfSl2Ixz4ygW-67" value="" style="shape=tableRow;horizontal=0;startSize=0;swimlaneHead=0;swimlaneBody=0;fillColor=none;collapsible=0;dropTarget=0;points=[[0,0.5],[1,0.5]];portConstraint=eastwest;strokeColor=inherit;top=0;left=0;right=0;bottom=0;fontSize=12;" parent="L1iufJ8MZfSl2Ixz4ygW-41" vertex="1">
          <mxGeometry y="180" width="440" height="30" as="geometry" />
        </mxCell>
        <mxCell id="L1iufJ8MZfSl2Ixz4ygW-68" value="" style="shape=partialRectangle;overflow=hidden;connectable=0;fillColor=none;strokeColor=inherit;top=0;left=0;bottom=0;right=0;fontSize=12;" parent="L1iufJ8MZfSl2Ixz4ygW-67" vertex="1">
          <mxGeometry width="30" height="30" as="geometry">
            <mxRectangle width="30" height="30" as="alternateBounds" />
          </mxGeometry>
        </mxCell>
        <mxCell id="L1iufJ8MZfSl2Ixz4ygW-69" value="estado BOOLEAN DEFAULT TRUE" style="shape=partialRectangle;overflow=hidden;connectable=0;fillColor=none;align=left;strokeColor=inherit;top=0;left=0;bottom=0;right=0;spacingLeft=6;fontSize=12;" parent="L1iufJ8MZfSl2Ixz4ygW-67" vertex="1">
          <mxGeometry x="30" width="410" height="30" as="geometry">
            <mxRectangle width="410" height="30" as="alternateBounds" />
          </mxGeometry>
        </mxCell>
        <mxCell id="L1iufJ8MZfSl2Ixz4ygW-70" value="" style="shape=tableRow;horizontal=0;startSize=0;swimlaneHead=0;swimlaneBody=0;fillColor=none;collapsible=0;dropTarget=0;points=[[0,0.5],[1,0.5]];portConstraint=eastwest;strokeColor=inherit;top=0;left=0;right=0;bottom=0;fontSize=12;" parent="L1iufJ8MZfSl2Ixz4ygW-41" vertex="1">
          <mxGeometry y="210" width="440" height="30" as="geometry" />
        </mxCell>
        <mxCell id="L1iufJ8MZfSl2Ixz4ygW-71" value="" style="shape=partialRectangle;overflow=hidden;connectable=0;fillColor=none;strokeColor=inherit;top=0;left=0;bottom=0;right=0;fontSize=12;" parent="L1iufJ8MZfSl2Ixz4ygW-70" vertex="1">
          <mxGeometry width="30" height="30" as="geometry">
            <mxRectangle width="30" height="30" as="alternateBounds" />
          </mxGeometry>
        </mxCell>
        <mxCell id="L1iufJ8MZfSl2Ixz4ygW-72" value="id_tipoCuenta INT NOT NULL" style="shape=partialRectangle;overflow=hidden;connectable=0;fillColor=none;align=left;strokeColor=inherit;top=0;left=0;bottom=0;right=0;spacingLeft=6;fontSize=12;" parent="L1iufJ8MZfSl2Ixz4ygW-70" vertex="1">
          <mxGeometry x="30" width="410" height="30" as="geometry">
            <mxRectangle width="410" height="30" as="alternateBounds" />
          </mxGeometry>
        </mxCell>
        <mxCell id="L1iufJ8MZfSl2Ixz4ygW-48" value="" style="shape=tableRow;horizontal=0;startSize=0;swimlaneHead=0;swimlaneBody=0;fillColor=none;collapsible=0;dropTarget=0;points=[[0,0.5],[1,0.5]];portConstraint=eastwest;strokeColor=inherit;top=0;left=0;right=0;bottom=0;fontSize=12;" parent="L1iufJ8MZfSl2Ixz4ygW-41" vertex="1">
          <mxGeometry y="240" width="440" height="30" as="geometry" />
        </mxCell>
        <mxCell id="L1iufJ8MZfSl2Ixz4ygW-49" value="" style="shape=partialRectangle;overflow=hidden;connectable=0;fillColor=none;strokeColor=inherit;top=0;left=0;bottom=0;right=0;fontSize=12;" parent="L1iufJ8MZfSl2Ixz4ygW-48" vertex="1">
          <mxGeometry width="30" height="30" as="geometry">
            <mxRectangle width="30" height="30" as="alternateBounds" />
          </mxGeometry>
        </mxCell>
        <mxCell id="L1iufJ8MZfSl2Ixz4ygW-50" value="FOREIGN KEY (id_tipoCuenta) REFERENCES Tipos_de_cuentas(id)" style="shape=partialRectangle;overflow=hidden;connectable=0;fillColor=none;align=left;strokeColor=inherit;top=0;left=0;bottom=0;right=0;spacingLeft=6;fontSize=12;" parent="L1iufJ8MZfSl2Ixz4ygW-48" vertex="1">
          <mxGeometry x="30" width="410" height="30" as="geometry">
            <mxRectangle width="410" height="30" as="alternateBounds" />
          </mxGeometry>
        </mxCell>
        <mxCell id="L1iufJ8MZfSl2Ixz4ygW-73" value="" style="shape=tableRow;horizontal=0;startSize=0;swimlaneHead=0;swimlaneBody=0;fillColor=none;collapsible=0;dropTarget=0;points=[[0,0.5],[1,0.5]];portConstraint=eastwest;strokeColor=inherit;top=0;left=0;right=0;bottom=0;fontSize=12;" parent="L1iufJ8MZfSl2Ixz4ygW-41" vertex="1">
          <mxGeometry y="270" width="440" height="30" as="geometry" />
        </mxCell>
        <mxCell id="L1iufJ8MZfSl2Ixz4ygW-74" value="" style="shape=partialRectangle;overflow=hidden;connectable=0;fillColor=none;strokeColor=inherit;top=0;left=0;bottom=0;right=0;fontSize=12;" parent="L1iufJ8MZfSl2Ixz4ygW-73" vertex="1">
          <mxGeometry width="30" height="30" as="geometry">
            <mxRectangle width="30" height="30" as="alternateBounds" />
          </mxGeometry>
        </mxCell>
        <mxCell id="L1iufJ8MZfSl2Ixz4ygW-75" value="id_cliente INT NOT NULL" style="shape=partialRectangle;overflow=hidden;connectable=0;fillColor=none;align=left;strokeColor=inherit;top=0;left=0;bottom=0;right=0;spacingLeft=6;fontSize=12;" parent="L1iufJ8MZfSl2Ixz4ygW-73" vertex="1">
          <mxGeometry x="30" width="410" height="30" as="geometry">
            <mxRectangle width="410" height="30" as="alternateBounds" />
          </mxGeometry>
        </mxCell>
        <mxCell id="L1iufJ8MZfSl2Ixz4ygW-57" value="" style="shape=tableRow;horizontal=0;startSize=0;swimlaneHead=0;swimlaneBody=0;fillColor=none;collapsible=0;dropTarget=0;points=[[0,0.5],[1,0.5]];portConstraint=eastwest;strokeColor=inherit;top=0;left=0;right=0;bottom=0;fontSize=12;" parent="L1iufJ8MZfSl2Ixz4ygW-41" vertex="1">
          <mxGeometry y="300" width="440" height="30" as="geometry" />
        </mxCell>
        <mxCell id="L1iufJ8MZfSl2Ixz4ygW-58" value="" style="shape=partialRectangle;overflow=hidden;connectable=0;fillColor=none;strokeColor=inherit;top=0;left=0;bottom=0;right=0;fontSize=12;" parent="L1iufJ8MZfSl2Ixz4ygW-57" vertex="1">
          <mxGeometry width="30" height="30" as="geometry">
            <mxRectangle width="30" height="30" as="alternateBounds" />
          </mxGeometry>
        </mxCell>
        <mxCell id="L1iufJ8MZfSl2Ixz4ygW-59" value="FOREIGN KEY (id_cliente) REFERENCES Cliente(id)" style="shape=partialRectangle;overflow=hidden;connectable=0;fillColor=none;align=left;strokeColor=inherit;top=0;left=0;bottom=0;right=0;spacingLeft=6;fontSize=12;" parent="L1iufJ8MZfSl2Ixz4ygW-57" vertex="1">
          <mxGeometry x="30" width="410" height="30" as="geometry">
            <mxRectangle width="410" height="30" as="alternateBounds" />
          </mxGeometry>
        </mxCell>
        <mxCell id="JTYDEQbj69x264iD5SEE-1" value="Tipos_de_cuentas" style="shape=table;startSize=30;container=1;collapsible=1;childLayout=tableLayout;fixedRows=1;rowLines=0;fontStyle=1;align=center;resizeLast=1;fontSize=14;" parent="1" vertex="1">
          <mxGeometry x="50" y="760" width="403" height="90" as="geometry" />
        </mxCell>
        <mxCell id="JTYDEQbj69x264iD5SEE-2" value="" style="shape=tableRow;horizontal=0;startSize=0;swimlaneHead=0;swimlaneBody=0;fillColor=none;collapsible=0;dropTarget=0;points=[[0,0.5],[1,0.5]];portConstraint=eastwest;strokeColor=inherit;top=0;left=0;right=0;bottom=1;fontSize=12;" parent="JTYDEQbj69x264iD5SEE-1" vertex="1">
          <mxGeometry y="30" width="403" height="30" as="geometry" />
        </mxCell>
        <mxCell id="JTYDEQbj69x264iD5SEE-3" value="PK" style="shape=partialRectangle;overflow=hidden;connectable=0;fillColor=none;strokeColor=inherit;top=0;left=0;bottom=0;right=0;fontStyle=1;fontSize=12;" parent="JTYDEQbj69x264iD5SEE-2" vertex="1">
          <mxGeometry width="30" height="30" as="geometry">
            <mxRectangle width="30" height="30" as="alternateBounds" />
          </mxGeometry>
        </mxCell>
        <mxCell id="JTYDEQbj69x264iD5SEE-4" value="id_tipoCuenta INT AUTO_INCREMENT " style="shape=partialRectangle;overflow=hidden;connectable=0;fillColor=none;align=left;strokeColor=inherit;top=0;left=0;bottom=0;right=0;spacingLeft=6;fontStyle=1;fontSize=12;" parent="JTYDEQbj69x264iD5SEE-2" vertex="1">
          <mxGeometry x="30" width="373" height="30" as="geometry">
            <mxRectangle width="373" height="30" as="alternateBounds" />
          </mxGeometry>
        </mxCell>
        <mxCell id="JTYDEQbj69x264iD5SEE-5" value="" style="shape=tableRow;horizontal=0;startSize=0;swimlaneHead=0;swimlaneBody=0;fillColor=none;collapsible=0;dropTarget=0;points=[[0,0.5],[1,0.5]];portConstraint=eastwest;strokeColor=inherit;top=0;left=0;right=0;bottom=0;fontSize=12;" parent="JTYDEQbj69x264iD5SEE-1" vertex="1">
          <mxGeometry y="60" width="403" height="30" as="geometry" />
        </mxCell>
        <mxCell id="JTYDEQbj69x264iD5SEE-6" value="" style="shape=partialRectangle;overflow=hidden;connectable=0;fillColor=none;strokeColor=inherit;top=0;left=0;bottom=0;right=0;fontSize=12;" parent="JTYDEQbj69x264iD5SEE-5" vertex="1">
          <mxGeometry width="30" height="30" as="geometry">
            <mxRectangle width="30" height="30" as="alternateBounds" />
          </mxGeometry>
        </mxCell>
        <mxCell id="JTYDEQbj69x264iD5SEE-7" value="descripcion VARCHAR(25) NOT NULL" style="shape=partialRectangle;overflow=hidden;connectable=0;fillColor=none;align=left;strokeColor=inherit;top=0;left=0;bottom=0;right=0;spacingLeft=6;fontSize=12;" parent="JTYDEQbj69x264iD5SEE-5" vertex="1">
          <mxGeometry x="30" width="373" height="30" as="geometry">
            <mxRectangle width="373" height="30" as="alternateBounds" />
          </mxGeometry>
        </mxCell>
        <mxCell id="JTYDEQbj69x264iD5SEE-9" value="Provincia" style="shape=table;startSize=30;container=1;collapsible=1;childLayout=tableLayout;fixedRows=1;rowLines=0;fontStyle=1;align=center;resizeLast=1;fontSize=14;" parent="1" vertex="1">
          <mxGeometry x="-950" y="120" width="403" height="90" as="geometry" />
        </mxCell>
        <mxCell id="JTYDEQbj69x264iD5SEE-10" value="" style="shape=tableRow;horizontal=0;startSize=0;swimlaneHead=0;swimlaneBody=0;fillColor=none;collapsible=0;dropTarget=0;points=[[0,0.5],[1,0.5]];portConstraint=eastwest;strokeColor=inherit;top=0;left=0;right=0;bottom=1;fontSize=12;" parent="JTYDEQbj69x264iD5SEE-9" vertex="1">
          <mxGeometry y="30" width="403" height="30" as="geometry" />
        </mxCell>
        <mxCell id="JTYDEQbj69x264iD5SEE-11" value="PK" style="shape=partialRectangle;overflow=hidden;connectable=0;fillColor=none;strokeColor=inherit;top=0;left=0;bottom=0;right=0;fontStyle=1;fontSize=12;" parent="JTYDEQbj69x264iD5SEE-10" vertex="1">
          <mxGeometry width="30" height="30" as="geometry">
            <mxRectangle width="30" height="30" as="alternateBounds" />
          </mxGeometry>
        </mxCell>
        <mxCell id="JTYDEQbj69x264iD5SEE-12" value="id INT AUTO_INCREMENT " style="shape=partialRectangle;overflow=hidden;connectable=0;fillColor=none;align=left;strokeColor=inherit;top=0;left=0;bottom=0;right=0;spacingLeft=6;fontStyle=1;fontSize=12;" parent="JTYDEQbj69x264iD5SEE-10" vertex="1">
          <mxGeometry x="30" width="373" height="30" as="geometry">
            <mxRectangle width="373" height="30" as="alternateBounds" />
          </mxGeometry>
        </mxCell>
        <mxCell id="JTYDEQbj69x264iD5SEE-19" value="" style="shape=tableRow;horizontal=0;startSize=0;swimlaneHead=0;swimlaneBody=0;fillColor=none;collapsible=0;dropTarget=0;points=[[0,0.5],[1,0.5]];portConstraint=eastwest;strokeColor=inherit;top=0;left=0;right=0;bottom=0;fontSize=12;" parent="JTYDEQbj69x264iD5SEE-9" vertex="1">
          <mxGeometry y="60" width="403" height="30" as="geometry" />
        </mxCell>
        <mxCell id="JTYDEQbj69x264iD5SEE-20" value="" style="shape=partialRectangle;overflow=hidden;connectable=0;fillColor=none;strokeColor=inherit;top=0;left=0;bottom=0;right=0;fontSize=12;" parent="JTYDEQbj69x264iD5SEE-19" vertex="1">
          <mxGeometry width="30" height="30" as="geometry">
            <mxRectangle width="30" height="30" as="alternateBounds" />
          </mxGeometry>
        </mxCell>
        <mxCell id="JTYDEQbj69x264iD5SEE-21" value="nombre VARCHAR(40) NOT NULL" style="shape=partialRectangle;overflow=hidden;connectable=0;fillColor=none;align=left;strokeColor=inherit;top=0;left=0;bottom=0;right=0;spacingLeft=6;fontSize=12;" parent="JTYDEQbj69x264iD5SEE-19" vertex="1">
          <mxGeometry x="30" width="373" height="30" as="geometry">
            <mxRectangle width="373" height="30" as="alternateBounds" />
          </mxGeometry>
        </mxCell>
        <mxCell id="JTYDEQbj69x264iD5SEE-40" value="Localidad" style="shape=table;startSize=30;container=1;collapsible=1;childLayout=tableLayout;fixedRows=1;rowLines=0;fontStyle=1;align=center;resizeLast=1;fontSize=14;" parent="1" vertex="1">
          <mxGeometry x="-950" y="250" width="403" height="150" as="geometry" />
        </mxCell>
        <mxCell id="JTYDEQbj69x264iD5SEE-41" value="" style="shape=tableRow;horizontal=0;startSize=0;swimlaneHead=0;swimlaneBody=0;fillColor=none;collapsible=0;dropTarget=0;points=[[0,0.5],[1,0.5]];portConstraint=eastwest;strokeColor=inherit;top=0;left=0;right=0;bottom=1;fontSize=12;" parent="JTYDEQbj69x264iD5SEE-40" vertex="1">
          <mxGeometry y="30" width="403" height="30" as="geometry" />
        </mxCell>
        <mxCell id="JTYDEQbj69x264iD5SEE-42" value="PK" style="shape=partialRectangle;overflow=hidden;connectable=0;fillColor=none;strokeColor=inherit;top=0;left=0;bottom=0;right=0;fontStyle=1;fontSize=12;" parent="JTYDEQbj69x264iD5SEE-41" vertex="1">
          <mxGeometry width="30" height="30" as="geometry">
            <mxRectangle width="30" height="30" as="alternateBounds" />
          </mxGeometry>
        </mxCell>
        <mxCell id="JTYDEQbj69x264iD5SEE-43" value="id INT AUTO_INCREMENT " style="shape=partialRectangle;overflow=hidden;connectable=0;fillColor=none;align=left;strokeColor=inherit;top=0;left=0;bottom=0;right=0;spacingLeft=6;fontStyle=1;fontSize=12;" parent="JTYDEQbj69x264iD5SEE-41" vertex="1">
          <mxGeometry x="30" width="373" height="30" as="geometry">
            <mxRectangle width="373" height="30" as="alternateBounds" />
          </mxGeometry>
        </mxCell>
        <mxCell id="JTYDEQbj69x264iD5SEE-44" value="" style="shape=tableRow;horizontal=0;startSize=0;swimlaneHead=0;swimlaneBody=0;fillColor=none;collapsible=0;dropTarget=0;points=[[0,0.5],[1,0.5]];portConstraint=eastwest;strokeColor=inherit;top=0;left=0;right=0;bottom=0;fontSize=12;" parent="JTYDEQbj69x264iD5SEE-40" vertex="1">
          <mxGeometry y="60" width="403" height="30" as="geometry" />
        </mxCell>
        <mxCell id="JTYDEQbj69x264iD5SEE-45" value="" style="shape=partialRectangle;overflow=hidden;connectable=0;fillColor=none;strokeColor=inherit;top=0;left=0;bottom=0;right=0;fontSize=12;" parent="JTYDEQbj69x264iD5SEE-44" vertex="1">
          <mxGeometry width="30" height="30" as="geometry">
            <mxRectangle width="30" height="30" as="alternateBounds" />
          </mxGeometry>
        </mxCell>
        <mxCell id="JTYDEQbj69x264iD5SEE-46" value="id_provincia INT NOT NULL" style="shape=partialRectangle;overflow=hidden;connectable=0;fillColor=none;align=left;strokeColor=inherit;top=0;left=0;bottom=0;right=0;spacingLeft=6;fontSize=12;" parent="JTYDEQbj69x264iD5SEE-44" vertex="1">
          <mxGeometry x="30" width="373" height="30" as="geometry">
            <mxRectangle width="373" height="30" as="alternateBounds" />
          </mxGeometry>
        </mxCell>
        <mxCell id="JTYDEQbj69x264iD5SEE-50" value="" style="shape=tableRow;horizontal=0;startSize=0;swimlaneHead=0;swimlaneBody=0;fillColor=none;collapsible=0;dropTarget=0;points=[[0,0.5],[1,0.5]];portConstraint=eastwest;strokeColor=inherit;top=0;left=0;right=0;bottom=0;fontSize=12;" parent="JTYDEQbj69x264iD5SEE-40" vertex="1">
          <mxGeometry y="90" width="403" height="30" as="geometry" />
        </mxCell>
        <mxCell id="JTYDEQbj69x264iD5SEE-51" value="" style="shape=partialRectangle;overflow=hidden;connectable=0;fillColor=none;strokeColor=inherit;top=0;left=0;bottom=0;right=0;fontSize=12;" parent="JTYDEQbj69x264iD5SEE-50" vertex="1">
          <mxGeometry width="30" height="30" as="geometry">
            <mxRectangle width="30" height="30" as="alternateBounds" />
          </mxGeometry>
        </mxCell>
        <mxCell id="JTYDEQbj69x264iD5SEE-52" value="nombre VARCHAR(50) NOT NULL" style="shape=partialRectangle;overflow=hidden;connectable=0;fillColor=none;align=left;strokeColor=inherit;top=0;left=0;bottom=0;right=0;spacingLeft=6;fontSize=12;" parent="JTYDEQbj69x264iD5SEE-50" vertex="1">
          <mxGeometry x="30" width="373" height="30" as="geometry">
            <mxRectangle width="373" height="30" as="alternateBounds" />
          </mxGeometry>
        </mxCell>
        <mxCell id="JTYDEQbj69x264iD5SEE-62" value="" style="shape=tableRow;horizontal=0;startSize=0;swimlaneHead=0;swimlaneBody=0;fillColor=none;collapsible=0;dropTarget=0;points=[[0,0.5],[1,0.5]];portConstraint=eastwest;strokeColor=inherit;top=0;left=0;right=0;bottom=0;fontSize=12;" parent="JTYDEQbj69x264iD5SEE-40" vertex="1">
          <mxGeometry y="120" width="403" height="30" as="geometry" />
        </mxCell>
        <mxCell id="JTYDEQbj69x264iD5SEE-63" value="" style="shape=partialRectangle;overflow=hidden;connectable=0;fillColor=none;strokeColor=inherit;top=0;left=0;bottom=0;right=0;fontSize=12;" parent="JTYDEQbj69x264iD5SEE-62" vertex="1">
          <mxGeometry width="30" height="30" as="geometry">
            <mxRectangle width="30" height="30" as="alternateBounds" />
          </mxGeometry>
        </mxCell>
        <mxCell id="JTYDEQbj69x264iD5SEE-64" value="FOREIGN KEY (id_provincia) REFERENCES Provincia(id)," style="shape=partialRectangle;overflow=hidden;connectable=0;fillColor=none;align=left;strokeColor=inherit;top=0;left=0;bottom=0;right=0;spacingLeft=6;fontSize=12;" parent="JTYDEQbj69x264iD5SEE-62" vertex="1">
          <mxGeometry x="30" width="373" height="30" as="geometry">
            <mxRectangle width="373" height="30" as="alternateBounds" />
          </mxGeometry>
        </mxCell>
      </root>
    </mxGraphModel>
  </diagram>
</mxfile>
